<svg width="129" height="19" viewBox="0 0 129 19" fill="none" xmlns="http://www.w3.org/2000/svg">
<path d="M39.0298 4.44V15H37.8138V8.36L37.9578 5.576H37.9418L34.4698 15H33.3818L29.9098 5.576H29.8938L30.0378 8.36V15H28.8218V4.44H30.7898L33.1098 10.856L33.9098 13.496H33.9418L34.7578 10.872L37.0618 4.44H39.0298ZM45.425 6.84C46.1823 6.84 46.849 7.00533 47.425 7.336C48.0117 7.66667 48.4703 8.14667 48.801 8.776C49.1317 9.39467 49.297 10.136 49.297 11C49.297 11.864 49.1317 12.6107 48.801 13.24C48.4703 13.8587 48.0117 14.3333 47.425 14.664C46.849 14.9947 46.1823 15.16 45.425 15.16C44.6783 15.16 44.0117 14.9947 43.425 14.664C42.8383 14.3333 42.3797 13.8587 42.049 13.24C41.7183 12.6107 41.553 11.864 41.553 11C41.553 10.136 41.7183 9.39467 42.049 8.776C42.3797 8.14667 42.8383 7.66667 43.425 7.336C44.0117 7.00533 44.6783 6.84 45.425 6.84ZM45.425 7.944C44.881 7.944 44.417 8.06667 44.033 8.312C43.649 8.55733 43.3503 8.90933 43.137 9.368C42.9343 9.816 42.833 10.36 42.833 11C42.833 11.6293 42.9343 12.1733 43.137 12.632C43.3503 13.0907 43.649 13.4427 44.033 13.688C44.417 13.9333 44.881 14.056 45.425 14.056C45.969 14.056 46.433 13.9333 46.817 13.688C47.201 13.4427 47.4943 13.0907 47.697 12.632C47.9103 12.1733 48.017 11.6293 48.017 11C48.017 10.36 47.9103 9.816 47.697 9.368C47.4943 8.90933 47.201 8.55733 46.817 8.312C46.433 8.06667 45.969 7.944 45.425 7.944ZM54.8268 15.16C54.1654 15.16 53.5574 14.9947 53.0028 14.664C52.4481 14.3333 52.0054 13.8587 51.6748 13.24C51.3441 12.6107 51.1788 11.864 51.1788 11C51.1788 10.1147 51.3548 9.36267 51.7068 8.744C52.0588 8.12533 52.5228 7.656 53.0988 7.336C53.6748 7.00533 54.2934 6.84 54.9548 6.84C55.6161 6.84 56.1868 7.01067 56.6668 7.352C57.1574 7.69333 57.4828 8.14667 57.6428 8.712L57.4828 8.824V3.32H58.7628V15H57.6428L57.5308 13.064L57.7068 12.968C57.6321 13.4373 57.4508 13.8373 57.1628 14.168C56.8854 14.488 56.5388 14.7333 56.1228 14.904C55.7174 15.0747 55.2854 15.16 54.8268 15.16ZM54.9548 14.04C55.4668 14.04 55.9094 13.912 56.2828 13.656C56.6668 13.4 56.9601 13.0373 57.1628 12.568C57.3761 12.088 57.4828 11.528 57.4828 10.888C57.4828 10.28 57.3761 9.75733 57.1628 9.32C56.9601 8.88267 56.6721 8.54667 56.2988 8.312C55.9361 8.07733 55.5094 7.96 55.0188 7.96C54.2081 7.96 53.5788 8.23733 53.1308 8.792C52.6828 9.34667 52.4588 10.0827 52.4588 11C52.4588 11.9173 52.6774 12.6533 53.1148 13.208C53.5521 13.7627 54.1654 14.04 54.9548 14.04ZM65.082 15.16C64.3247 15.16 63.6473 14.9947 63.05 14.664C62.4633 14.3333 62.0047 13.8587 61.674 13.24C61.3433 12.6107 61.178 11.864 61.178 11C61.178 10.136 61.3433 9.39467 61.674 8.776C62.0047 8.14667 62.458 7.66667 63.034 7.336C63.61 7.00533 64.266 6.84 65.002 6.84C65.7487 6.84 66.3833 7 66.906 7.32C67.4393 7.64 67.8447 8.07733 68.122 8.632C68.3993 9.176 68.538 9.78933 68.538 10.472C68.538 10.6533 68.5327 10.8187 68.522 10.968C68.5113 11.1173 68.4953 11.2507 68.474 11.368H62.01V10.232H67.914L67.258 10.36C67.258 9.592 67.0447 9 66.618 8.584C66.202 8.168 65.6527 7.96 64.97 7.96C64.4473 7.96 63.994 8.08267 63.61 8.328C63.2367 8.56267 62.9433 8.90933 62.73 9.368C62.5273 9.816 62.426 10.36 62.426 11C62.426 11.6293 62.5327 12.1733 62.746 12.632C62.9593 13.0907 63.258 13.4427 63.642 13.688C64.0367 13.9227 64.506 14.04 65.05 14.04C65.6367 14.04 66.1113 13.928 66.474 13.704C66.8473 13.48 67.146 13.176 67.37 12.792L68.378 13.384C68.1753 13.7467 67.914 14.0613 67.594 14.328C67.2847 14.5947 66.9167 14.8027 66.49 14.952C66.074 15.0907 65.6047 15.16 65.082 15.16ZM79.7695 15.16C79.0122 15.16 78.3348 14.9947 77.7375 14.664C77.1508 14.3333 76.6922 13.8587 76.3615 13.24C76.0308 12.6107 75.8655 11.864 75.8655 11C75.8655 10.136 76.0308 9.39467 76.3615 8.776C76.6922 8.14667 77.1455 7.66667 77.7215 7.336C78.2975 7.00533 78.9535 6.84 79.6895 6.84C80.4362 6.84 81.0708 7 81.5935 7.32C82.1268 7.64 82.5322 8.07733 82.8095 8.632C83.0868 9.176 83.2255 9.78933 83.2255 10.472C83.2255 10.6533 83.2202 10.8187 83.2095 10.968C83.1988 11.1173 83.1828 11.2507 83.1615 11.368H76.6975V10.232H82.6015L81.9455 10.36C81.9455 9.592 81.7322 9 81.3055 8.584C80.8895 8.168 80.3402 7.96 79.6575 7.96C79.1348 7.96 78.6815 8.08267 78.2975 8.328C77.9242 8.56267 77.6308 8.90933 77.4175 9.368C77.2148 9.816 77.1135 10.36 77.1135 11C77.1135 11.6293 77.2202 12.1733 77.4335 12.632C77.6468 13.0907 77.9455 13.4427 78.3295 13.688C78.7242 13.9227 79.1935 14.04 79.7375 14.04C80.3242 14.04 80.7988 13.928 81.1615 13.704C81.5348 13.48 81.8335 13.176 82.0575 12.792L83.0655 13.384C82.8628 13.7467 82.6015 14.0613 82.2815 14.328C81.9722 14.5947 81.6042 14.8027 81.1775 14.952C80.7615 15.0907 80.2922 15.16 79.7695 15.16ZM80.0255 3H81.4175L79.8495 5.672H78.8095L80.0255 3ZM88.7799 15.16C88.1185 15.16 87.5105 14.9947 86.9559 14.664C86.4012 14.3333 85.9585 13.8587 85.6279 13.24C85.2972 12.6107 85.1319 11.864 85.1319 11C85.1319 10.1147 85.3079 9.36267 85.6599 8.744C86.0119 8.12533 86.4759 7.656 87.0519 7.336C87.6279 7.00533 88.2465 6.84 88.9079 6.84C89.5692 6.84 90.1399 7.01067 90.6199 7.352C91.1105 7.69333 91.4359 8.14667 91.5959 8.712L91.4359 8.824V3.32H92.7159V15H91.5959L91.4839 13.064L91.6599 12.968C91.5852 13.4373 91.4039 13.8373 91.1159 14.168C90.8385 14.488 90.4919 14.7333 90.0759 14.904C89.6705 15.0747 89.2385 15.16 88.7799 15.16ZM88.9079 14.04C89.4199 14.04 89.8625 13.912 90.2359 13.656C90.6199 13.4 90.9132 13.0373 91.1159 12.568C91.3292 12.088 91.4359 11.528 91.4359 10.888C91.4359 10.28 91.3292 9.75733 91.1159 9.32C90.9132 8.88267 90.6252 8.54667 90.2519 8.312C89.8892 8.07733 89.4625 7.96 88.9719 7.96C88.1612 7.96 87.5319 8.23733 87.0839 8.792C86.6359 9.34667 86.4119 10.0827 86.4119 11C86.4119 11.9173 86.6305 12.6533 87.0679 13.208C87.5052 13.7627 88.1185 14.04 88.9079 14.04ZM96.3311 5.464C96.0431 5.464 95.8085 5.37867 95.6271 5.208C95.4565 5.02667 95.3711 4.792 95.3711 4.504C95.3711 4.216 95.4565 3.98667 95.6271 3.816C95.8085 3.63467 96.0431 3.544 96.3311 3.544C96.6191 3.544 96.8485 3.63467 97.0191 3.816C97.2005 3.98667 97.2911 4.216 97.2911 4.504C97.2911 4.792 97.2005 5.02667 97.0191 5.208C96.8485 5.37867 96.6191 5.464 96.3311 5.464ZM96.9711 7V15H95.6911V7H96.9711ZM101.829 4.728V12.792C101.829 13.1867 101.941 13.48 102.165 13.672C102.389 13.864 102.677 13.96 103.029 13.96C103.338 13.96 103.605 13.9067 103.829 13.8C104.053 13.6933 104.256 13.5493 104.437 13.368L104.885 14.44C104.64 14.664 104.346 14.84 104.005 14.968C103.674 15.096 103.29 15.16 102.853 15.16C102.448 15.16 102.069 15.0907 101.717 14.952C101.365 14.8027 101.082 14.5733 100.869 14.264C100.666 13.944 100.56 13.528 100.549 13.016V5.08L101.829 4.728ZM104.741 7V8.104H98.9491V7H104.741ZM107.284 5.464C106.996 5.464 106.762 5.37867 106.58 5.208C106.41 5.02667 106.324 4.792 106.324 4.504C106.324 4.216 106.41 3.98667 106.58 3.816C106.762 3.63467 106.996 3.544 107.284 3.544C107.572 3.544 107.802 3.63467 107.972 3.816C108.154 3.98667 108.244 4.216 108.244 4.504C108.244 4.792 108.154 5.02667 107.972 5.208C107.802 5.37867 107.572 5.464 107.284 5.464ZM107.924 7V15H106.644V7H107.924ZM114.206 6.84C114.964 6.84 115.63 7.00533 116.206 7.336C116.793 7.66667 117.252 8.14667 117.582 8.776C117.913 9.39467 118.078 10.136 118.078 11C118.078 11.864 117.913 12.6107 117.582 13.24C117.252 13.8587 116.793 14.3333 116.206 14.664C115.63 14.9947 114.964 15.16 114.206 15.16C113.46 15.16 112.793 14.9947 112.206 14.664C111.62 14.3333 111.161 13.8587 110.83 13.24C110.5 12.6107 110.334 11.864 110.334 11C110.334 10.136 110.5 9.39467 110.83 8.776C111.161 8.14667 111.62 7.66667 112.206 7.336C112.793 7.00533 113.46 6.84 114.206 6.84ZM114.206 7.944C113.662 7.944 113.198 8.06667 112.814 8.312C112.43 8.55733 112.132 8.90933 111.918 9.368C111.716 9.816 111.614 10.36 111.614 11C111.614 11.6293 111.716 12.1733 111.918 12.632C112.132 13.0907 112.43 13.4427 112.814 13.688C113.198 13.9333 113.662 14.056 114.206 14.056C114.75 14.056 115.214 13.9333 115.598 13.688C115.982 13.4427 116.276 13.0907 116.478 12.632C116.692 12.1733 116.798 11.6293 116.798 11C116.798 10.36 116.692 9.816 116.478 9.368C116.276 8.90933 115.982 8.55733 115.598 8.312C115.214 8.06667 114.75 7.944 114.206 7.944ZM120.488 15V7H121.608L121.72 8.792L121.512 8.616C121.683 8.18933 121.912 7.848 122.2 7.592C122.488 7.32533 122.819 7.13333 123.192 7.016C123.576 6.89867 123.971 6.84 124.376 6.84C124.952 6.84 125.475 6.952 125.944 7.176C126.413 7.38933 126.787 7.72 127.064 8.168C127.352 8.616 127.496 9.18667 127.496 9.88V15H126.216V10.328C126.216 9.44267 126.024 8.82933 125.64 8.488C125.267 8.136 124.803 7.96 124.248 7.96C123.864 7.96 123.48 8.05067 123.096 8.232C122.712 8.41333 122.392 8.70667 122.136 9.112C121.891 9.51733 121.768 10.0613 121.768 10.744V15H120.488Z" fill="white"/>
<path d="M13.5229 3.68576L13.8939 4.05679C14.1821 4.34503 14.1821 4.81113 13.8939 5.0963L13.0016 5.99169L11.5879 4.57808L12.4803 3.68576C12.7685 3.39751 13.2346 3.39751 13.5198 3.68576H13.5229ZM6.43332 9.73578L10.5484 5.61759L11.9621 7.03121L7.84387 11.1463C7.75494 11.2353 7.64455 11.2996 7.52496 11.3334L5.73111 11.8455L6.2432 10.0516C6.27693 9.93203 6.34133 9.82164 6.43025 9.73271L6.43332 9.73578ZM11.4408 2.64625L5.39074 8.6932C5.12397 8.95998 4.93078 9.28808 4.82959 9.64685L3.9526 12.7133C3.879 12.9708 3.94953 13.2468 4.13965 13.4369C4.32977 13.627 4.60574 13.6976 4.86332 13.624L7.92973 12.747C8.29156 12.6427 8.61967 12.4495 8.88338 12.1858L14.9334 6.13888C15.7951 5.27722 15.7951 3.87894 14.9334 3.01728L14.5624 2.64625C13.7007 1.78458 12.3024 1.78458 11.4408 2.64625ZM2.69844 3.84214C1.20816 3.84214 0 5.05031 0 6.54058V14.8812C0 16.3715 1.20816 17.5796 2.69844 17.5796H11.0391C12.5293 17.5796 13.7375 16.3715 13.7375 14.8812V11.4468C13.7375 11.039 13.4094 10.7109 13.0016 10.7109C12.5937 10.7109 12.2656 11.039 12.2656 11.4468V14.8812C12.2656 15.5589 11.7167 16.1078 11.0391 16.1078H2.69844C2.02076 16.1078 1.47188 15.5589 1.47188 14.8812V6.54058C1.47188 5.86291 2.02076 5.31402 2.69844 5.31402H6.13281C6.54065 5.31402 6.86875 4.98591 6.86875 4.57808C6.86875 4.17025 6.54065 3.84214 6.13281 3.84214H2.69844Z" fill="white"/>
</svg>
